<svg height="512" viewBox="0 0 512 512" width="512" xmlns="http://www.w3.org/2000/svg"><path d="m486.6 446.043v.89a37.335 37.335 0 0 1 -67.2 22.4l-59.4-77.333v104h-216v-104l-48 64h-64l53.91-121.3a47.977 47.977 0 0 1 34.45-27.57l71.35-14.27 24.29-4.86v-80h80v80l24.29 4.86 51.31 10.26 22.78 4.56a47.993 47.993 0 0 1 32.43 23.53l55 96.533a37.334 37.334 0 0 1 4.79 18.3z" fill="#fec9a3"/><path d="m486.6 446.043v.89a37.335 37.335 0 0 1 -67.2 22.4l-59.4-77.333v104h-216v-104l-48 64h-64l53.91-121.3a47.977 47.977 0 0 1 34.45-27.57l71.35-14.27 64.29 139.14 64.29-139.14 51.31 10.26 22.78 4.56a47.993 47.993 0 0 1 32.43 23.53l55 96.533a37.334 37.334 0 0 1 4.79 18.3z" fill="#348fd9"/><path d="m296 243.858v-35.868h-80v35.868a71.963 71.963 0 0 0 80 0z" fill="#feb784"/><path d="m200 319.99h112v112h-112z" fill="#348fd9"/><path d="m486.6 446.04v.89a37.335 37.335 0 0 1 -67.2 22.4l-59.4-77.33v104h-216v-104l-48 64h-64l53.91-121.3a47.977 47.977 0 0 1 34.45-27.57l71.35-14.27 64.29 139.14 64.29-139.14 51.31 10.26 1.39.28 21.39 4.28a47.993 47.993 0 0 1 32.43 23.53l55 96.53a37.334 37.334 0 0 1 4.79 18.3z" fill="#e0e0de"/><path d="m486.6 446.04v.89a37.335 37.335 0 0 1 -67.2 22.4l-59.4-77.33v104h-152.73c55.15-31.82 128.24-90.93 165.72-192.6l21.39 4.28a47.993 47.993 0 0 1 32.43 23.53l55 96.53a37.334 37.334 0 0 1 4.79 18.3z" fill="#d6d6d4"/><path d="m62.389 488a33.61 33.61 0 0 1 -33.315-38.053l10.926-81.947h56v86.389a33.611 33.611 0 0 1 -33.611 33.611z" fill="#ebebe9"/><path d="m80 192h48a0 0 0 0 1 0 0v136a24 24 0 0 1 -24 24 24 24 0 0 1 -24-24v-136a0 0 0 0 1 0 0z" fill="#4db7e5"/><path d="m80 272h48a0 0 0 0 1 0 0v56a24 24 0 0 1 -24 24 24 24 0 0 1 -24-24v-56a0 0 0 0 1 0 0z" fill="#ffb531"/><path d="m112 320v48a16 16 0 0 1 -16 16h-46.4a9.6 9.6 0 0 1 -9.6-9.6v-60.8a9.6 9.6 0 0 1 9.6-9.6h46.4a16 16 0 0 1 16 16z" fill="#fec9a3"/><path d="m336 120h-8v48h8a24 24 0 1 0 0-48z" fill="#feb784"/><path d="m176.4 120h-.4a24.07 24.07 0 0 0 -24 24 24.071 24.071 0 0 0 24 24h8v-48z" fill="#feb784"/><path d="m328 112v56a72 72 0 1 1 -144 0v-56a72 72 0 0 1 144 0z" fill="#fec9a3"/><path d="m184 120v-32c0-26.51 17.909-48 40-48l-1.408 5.068c-7.842 28.232-21.055 53.888-38.592 74.932z" fill="#f27900"/><path d="m248.934 200h-16.934v-16h16.934a99.062 99.062 0 0 0 28.747-4.216l4.638 15.313a115.032 115.032 0 0 1 -33.385 4.903z" fill="#f7a468"/><path d="m328 112v56a72.08 72.08 0 0 1 -88 70.22 72.044 72.044 0 0 0 56-70.22v-88a71.65 71.65 0 0 0 -7.66-32.34 72.075 72.075 0 0 1 39.66 64.34z" fill="#fec093"/><path d="m328 120v-55.015a25.754 25.754 0 0 0 -32-24.985v24s14.463 34.956 32 56z" fill="#f98500"/><path d="m296 40v24h-112a39.813 39.813 0 0 1 10.14-26.6c.51-.58 1.04-1.14 1.58-1.68a40 40 0 0 1 28.28-11.72h33.37a54.641 54.641 0 0 1 38.63 16z" fill="#f98500"/><path d="m282.68 64h-20.58l-32.37-40h20.58z" fill="#f27900"/><path d="m243.81 64h-22.76l-26.91-26.6c.51-.58 1.04-1.14 1.58-1.68a39.918 39.918 0 0 1 11.4-7.98z" fill="#f27900"/><path d="m488 407.64a32.362 32.362 0 0 1 -32.36 32.36h-79.28a32.353 32.353 0 0 1 -28.94-46.83l16.58-33.17 28-56v-80h48v80l28 56 16.58 33.17a32.313 32.313 0 0 1 3.42 14.47z" fill="#4db7e5"/><path d="m488 407.64a32.362 32.362 0 0 1 -32.36 32.36h-79.28a32.353 32.353 0 0 1 -28.94-46.83l16.58-33.17h104l16.58 33.17a32.313 32.313 0 0 1 3.42 14.47z" fill="#db6ea2"/><path d="m216 272-24.286 20.857 30.663 66.369 33.623-39.226z" fill="#62a9e6"/><path d="m296 272 24.286 20.857-30.663 66.369-33.623-39.226z" fill="#62a9e6"/><path d="m256 320-16 18.667v58.702l16 34.631 16-34.631v-58.702z" fill="#95573a"/><path d="m191.714 292.857-23.714 67.143h24l-8 32 72 40z" fill="#ebebe9"/><path d="m320.286 292.857 23.714 67.143h-24l8 32-72 40z" fill="#ebebe9"/><path d="m40 136a24 24 0 1 0 24 24 24.028 24.028 0 0 0 -24-24zm0 32a8 8 0 1 1 8-8 8.009 8.009 0 0 1 -8 8z" fill="#ffb531"/><path d="m128 104h-16v-16h-16v16h-16v16h16v16h16v-16h16z" fill="#ffb531"/><path d="m336 112v40a16 16 0 0 1 -16 16h-32a14.946 14.946 0 0 1 -12.44-6.66l-7.12-10.68a14.945 14.945 0 0 0 -24.88 0l-7.12 10.68a14.946 14.946 0 0 1 -12.44 6.66h-32a16 16 0 0 1 -16-16v-40a16 16 0 0 1 16-16h128a16 16 0 0 1 16 16z" fill="#4db7e5"/><path d="m336 112v40a16 16 0 0 1 -16 16h-32a14.946 14.946 0 0 1 -12.44-6.66l-7.12-10.68a14.916 14.916 0 0 0 -8.53-6.14l46.81-48.52h13.28a16 16 0 0 1 16 16z" fill="#48add9"/><circle cx="212" cy="132" fill="#419bc2" r="12"/><circle cx="300" cy="132" fill="#419bc2" r="12"/><path d="m248 432h16v64h-16z" fill="#bfbfbd"/><path d="m216 448h16v16h-16z" fill="#bfbfbd"/><path d="m468 360h-24l16.58 33.17a32.359 32.359 0 0 1 -28.94 46.83h24a32.353 32.353 0 0 0 28.94-46.83z" fill="#d3669a"/><path d="m440 304v-80h-24v80l28 56h24z" fill="#48add9"/><path d="m488 398.01v53.45a36.545 36.545 0 0 1 -60.2 27.85l-5.22-4.43-32.33-27.48a16.027 16.027 0 0 1 -4.49-19.98l17.62-34.42a16.865 16.865 0 0 1 25.9-4.94l30.03 25.82 4.8-18.75a12.183 12.183 0 0 1 16.78-7.91 12.061 12.061 0 0 1 5.18 4.37 11.7 11.7 0 0 1 1.93 6.42z" fill="#fec9a3"/><g fill="#fec093"><path d="m488 399.35v52.11a36.545 36.545 0 0 1 -60.2 27.85l-5.22-4.43a308.618 308.618 0 0 0 65.42-75.53z"/><path d="m112 320v48a16 16 0 0 1 -16 16h-24a16 16 0 0 0 16-16v-48a16 16 0 0 0 -16-16h24a16 16 0 0 1 16 16z"/></g></svg>