<svg height="512" viewBox="0 0 512 512" width="512" xmlns="http://www.w3.org/2000/svg"><path d="m240 304h-216v-192h56l16 16h144z" fill="#ffa912"/><path d="m24 168h216v136h-216z" fill="#ffb531"/><path d="m48 192h16v16h-16z" fill="#ffcb73"/><path d="m48 224h16v56h-16z" fill="#ffcb73"/><path d="m232 168-40-40h-51l-45 40z" fill="#f7a116"/><path d="m80 168 72-64 64 64z" fill="#e0e0de"/><path d="m440 72a48 48 0 0 1 48 48v120a0 0 0 0 1 0 0 48 48 0 0 1 -48-48v-120a0 0 0 0 1 0 0z" fill="#f27900"/><path d="m392 280v-64h-64v64h-48v120h160v-120z" fill="#fec9a3"/><path d="m364.824 256a43.894 43.894 0 0 0 27.176-9.81v-30.19h-64v30.19a43.894 43.894 0 0 0 27.176 9.81z" fill="#feb784"/><path d="m440 280h-32v72h-96v-72h-35.606a40 40 0 0 0 -37.761 26.8l-50.223 143.718a27.93 27.93 0 0 0 13.758 34.526 27.93 27.93 0 0 0 37.832-13.239l34.41-82.065c-5.405 19.471-.533 41.452 13.59 58.26v48h192v-176a40 40 0 0 0 -40-40z" fill="#e0e0de"/><path d="m440 280h-32l-48 136-48-136h-35.606a40 40 0 0 0 -37.761 26.8l-50.223 143.718a27.93 27.93 0 0 0 13.758 34.526 27.93 27.93 0 0 0 37.832-13.239l34.223-81.618c-5.384 19.359-.239 41.133 13.777 57.813v48h192v-176a40 40 0 0 0 -40-40z" fill="#3d4d63"/><path d="m480 325.747c-40.973 94.989-115.135 146.746-158.317 170.253h158.317z" fill="#374559"/><path d="m440 496h-16v-48a8.011 8.011 0 0 1 1.875-5.148c14.746-17.547 17.605-42.211 7.113-61.368l14.032-7.684c13.18 24.052 10.289 54.63-7.02 77.02z" fill="#29384a"/><path d="m432 112v56a72.006 72.006 0 0 1 -72 72 71.157 71.157 0 0 1 -9.85-.68h-.01a71.984 71.984 0 0 1 -62.14-71.32v-56a64 64 0 0 1 64-64h16c1.53 0 3.05.05 4.56.17a64 64 0 0 1 59.17 57.88q.27 2.94.27 5.95z" fill="#fec9a3"/><path d="m432 112v56a72.006 72.006 0 0 1 -72 72 71.157 71.157 0 0 1 -9.85-.68 88 88 0 0 0 49.85-79.32v-48a87.688 87.688 0 0 0 -25.78-62.22c-.55-.55-1.1-1.08-1.66-1.61a63.983 63.983 0 0 1 59.44 63.83z" fill="#fec093"/><path d="m431.89 109.78c-11.56-9.71-19.57-22.86-23.91-37.78-1.88 0-6.95 0-13.59-.01a58.383 58.383 0 0 0 -58.39 58.34 86.749 86.749 0 0 1 -39.07 72.39h-.01a71.534 71.534 0 0 1 -8.92-34.72v-56a64 64 0 0 1 64-64h16c1.53 0 3.05.05 4.56.17a64 64 0 0 1 59.17 57.88c.06 1.27.12 2.51.16 3.73z" fill="#fec093"/><path d="m360 200a24.027 24.027 0 0 1 -24-24h16a8 8 0 0 0 16 0h16a24.027 24.027 0 0 1 -24 24z" fill="#f7a468"/><path d="m312 280-40 32 32 24-8 24 64 56z" fill="#4c5d72"/><path d="m408 280 40 32-32 24 8 24-64 56z" fill="#4c5d72"/><path d="m352 416h16v80h-16z" fill="#29384a"/><path d="m320 432h16v16h-16z" fill="#29384a"/><path d="m432 120h8a24 24 0 0 1 24 24 24 24 0 0 1 -24 24h-8a0 0 0 0 1 0 0v-48a0 0 0 0 1 0 0z" fill="#feb784"/><rect fill="#d6d6d4" height="40" rx="20" width="60" x="288" y="120"/><rect fill="#d6d6d4" height="40" rx="20" width="60" x="372" y="120"/><path d="m412 112h-20a27.961 27.961 0 0 0 -25.191 16h-13.618a27.961 27.961 0 0 0 -25.191-16h-20a28 28 0 0 0 0 56h20a27.96 27.96 0 0 0 27.6-24h8.8a27.96 27.96 0 0 0 27.6 24h20a28 28 0 0 0 0-56zm-84 40h-20a12 12 0 0 1 0-24h20a12 12 0 0 1 0 24zm84 0h-20a12 12 0 0 1 0-24h20a12 12 0 0 1 0 24z" fill="#3d4d63"/><path d="m186.23 459.01 5.77-75.01h48v77.075a26.925 26.925 0 0 1 -26.925 26.925 26.924 26.924 0 0 1 -26.845-28.99z" fill="#4c5d72"/><path d="m210.821 267.3a15.562 15.562 0 0 0 -10.145 22.057l7.324 14.643h-28.669a48 48 0 0 1 -21.466-5.067l-7.972-3.986a9.6 9.6 0 0 0 -13.893 8.586v22.578a16 16 0 0 0 8.845 14.311l13.02 6.511a48 48 0 0 0 21.466 5.067h60.669v-48l-10.955-27.387a15.562 15.562 0 0 0 -18.224-9.313z" fill="#fec9a3"/><path d="m192 352h48v32h-48z" fill="#e0e0de"/><path d="m328 112h-20a28 28 0 0 0 0 56h19.19a86.143 86.143 0 0 0 6.334-17.411 11.844 11.844 0 0 1 -5.524 1.411h-20a12 12 0 0 1 0-24h20a11.906 11.906 0 0 1 7.953 3.083c0-.252.047-.5.047-.749a58.2 58.2 0 0 1 2.346-16.262 27.449 27.449 0 0 0 -10.346-2.072z" fill="#374559"/><path d="m448 104v16h-16l-2.5-1.25c-15.39-7.7-26.54-20.24-33.36-35.41a86.441 86.441 0 0 1 -4.16-11.33c-1.37-.01-4.43-.01-8.56-.01-1.54 0-3.23 0-5.03-.01a58.383 58.383 0 0 0 -58.39 58.34 86.856 86.856 0 0 1 -48 77.67v-104a80 80 0 0 1 80-80h16a80 80 0 0 1 80 80z" fill="#f98500"/><path d="m413.82 38.42-17.68 44.92a86.441 86.441 0 0 1 -4.16-11.33c-1.37-.01-4.43-.01-8.56-.01l16.3-41.46a78.944 78.944 0 0 1 14.1 7.88z" fill="#e67007"/><path d="m24 344h128v136h-128z" fill="#60d1e0"/><path d="m152 389-91 91h91z" fill="#5ac6d4"/><path d="m24 344h128v40h-128z" fill="#f35244"/><path d="m48 328h16v32h-16z" fill="#e0e0de"/><path d="m112 328h16v32h-16z" fill="#e0e0de"/><g fill="#419bc2"><path d="m48 408h16v16h-16z"/><path d="m80 408h16v16h-16z"/><path d="m112 408h16v16h-16z"/><path d="m48 440h16v16h-16z"/><path d="m80 440h16v16h-16z"/><path d="m112 440h16v16h-16z"/></g><path d="m24 384h128v16h-128z" fill="#5ac6d4"/></svg>