<svg id="Capa_1" enable-background="new 0 0 512 512" height="512" viewBox="0 0 512 512" width="512" xmlns="http://www.w3.org/2000/svg"><g><g><g><g><g><g><path d="m418.688 466.332v-263.678c0-11.766-9.535-21.304-21.3-21.31h-340.768c-11.769 0-21.31 9.541-21.31 21.31v263.678z" fill="#f4fbff"/><path d="m455.38 181.344h-65.209c11.769 0 21.31 9.541 21.31 21.31v263.678h65.209v-263.678c0-11.769-9.541-21.31-21.31-21.31z" fill="#e4f6ff"/><path d="m418.688 222.534h-328.043c-7.813 0-14.146 6.333-14.146 14.146v216.612h342.189z" fill="#cbe2ff"/><path d="m435.5 453.292v-216.613c0-7.813-6.333-14.146-14.146-14.146h-9.874v230.758h24.02z" fill="#bed8fb"/><path d="m450.538 478.375v-25.083h-437.638c-7.061 0-12.786 5.724-12.786 12.786 0 25.362 20.56 45.922 45.923 45.922h370.886c18.566-.006 33.615-15.058 33.615-33.625z" fill="#d8e2f1"/><g fill="#b9cbea"><path d="m499.1 453.292h-52.424v25.083c0 18.571-15.054 33.625-33.625 33.625h52.912c25.362 0 45.923-20.56 45.923-45.923 0-7.061-5.725-12.785-12.786-12.785z"/><path d="m178.024 453.292c0 16.212 13.142 29.354 29.354 29.354h97.244c16.212 0 29.354-13.142 29.354-29.354z"/></g></g></g><g><g><path d="m209.572 64.525h-51.72c-25.548 0-46.259 20.711-46.259 46.259v44.62l9.267 6.739h92.739v-90.81z" fill="#efc984"/><path d="m311.096 305.71-66.124-19.413h-103.515l-66.148 19.415c-23.711 6.959-39.998 28.714-39.998 53.425v94.156h315.779v-94.159c0-24.71-16.285-46.464-39.994-53.424z" fill="#4a80aa"/><path d="m311.096 305.71-66.124-19.413h-51.478l.469 26.182 51.924 16.054c23.709 6.96 39.994 28.714 39.994 53.424v71.335h65.209v-94.159c0-24.709-16.285-46.463-39.994-53.423z" fill="#407093"/><path d="m203.289 350.32h-20.178l-18.224 102.817.083.155h56.581z" fill="#dd636e"/><g><g><g><g><g><g><g><g><path d="m229.516 290.632v-58.395h-72.659v58.395c0 20.064 36.33 21.847 36.33 21.847s36.329-1.783 36.329-21.847z" fill="#ffddce"/></g></g></g></g><path d="m306.289 453.292v-32.229c0-4.266-3.457-7.723-7.723-7.723s-7.723 3.457-7.723 7.723v32.229z" fill="#365e7d"/></g></g></g><path d="m254.681 91.413h-.677c-3.749 0-6.788-3.039-6.788-6.788 0-11.101-8.999-20.1-20.1-20.1h-17.544v97.618h55.942l9.267-6.739v-43.891c0-11.101-8.999-20.1-20.1-20.1z" fill="#eabc6b"/></g><g fill="#365e7d"><path d="m142.694 282.424-10.347 4.645c-5.906 2.652-7.332 10.394-2.757 14.976l28.655 28.699c3.634 3.538 9.356 3.756 13.249.504l22.469-18.769-38.308-28.625c-3.74-2.795-8.702-3.342-12.961-1.43z"/><path d="m230.699 284.033-36.736 28.446 21.119 18.057c3.869 3.308 9.617 3.142 13.288-.385l28.669-27.919c4.686-4.563 3.286-12.415-2.689-15.078l-10.548-4.7c-4.325-1.926-9.359-1.32-13.103 1.579z"/></g></g><path d="m193.963 312.479-22.126 18.479 11.274 19.362h20.178l11.274-20.203z" fill="#e28086"/></g></g><path d="m427.453 0h-65.904c-12.513 0-22.656 10.143-22.656 22.656v57.682c0 10.901 7.699 20 17.955 22.164.447.094.776.236 1.127.492l3.359 2.231h35.695l2.381-2.231h28.043c12.513 0 22.656-10.143 22.656-22.656v-57.682c0-12.513-10.144-22.656-22.656-22.656z" fill="#e28086"/><g fill="#dd636e"><path d="m359.401 105.714v29.333c0 3.561 4.305 5.344 6.823 2.826l33.913-33.913c.619-.619 1.459-.967 2.335-.967h-44.497c.872.6 1.426 1.612 1.426 2.721z"/><path d="m486.656 0h-65.209c12.513 0 22.656 10.143 22.656 22.656v57.682c0 12.513-10.143 22.656-22.656 22.656h65.209c12.513 0 22.656-10.143 22.656-22.656v-57.682c-.001-12.513-10.144-22.656-22.656-22.656z"/></g></g></g><path d="m95.53 453.292v-32.229c0-4.266-3.457-7.723-7.723-7.723s-7.723 3.457-7.723 7.723v32.229z" fill="#365e7d"/><g><path d="m213.599 196.027v-72.679c-18.169 3.451-37.001 2.252-54.71-3.598l-.026-.009c-9.553-3.156-19.396 3.958-19.396 14.019v7.657c0 7.724-6.262 13.986-13.986 13.986h-13.889v22.871c0 5.844 4.738 10.582 10.582 10.582 1.844 0 3.344 1.445 3.46 3.285 1.959 31.064 24.853 56.445 54.739 62.171 19.65-12.072 32.853-33.617 33.226-58.285z" fill="#ffddce"/><path d="m260.892 155.404c-7.724 0-13.986-6.262-13.986-13.986v-7.654c0-10.062-9.844-17.176-19.397-14.018-5.877 1.942-11.879 3.358-17.937 4.276v71.014c-.377 24.918-14.216 46.559-34.56 58.002 5.785 1.61 11.876 2.487 18.175 2.487 35.939 0 65.321-28.006 67.552-63.382.116-1.84 1.617-3.285 3.46-3.285 5.844 0 10.582-4.738 10.582-10.582v-22.871h-13.889z" fill="#ffcbbe"/></g></g></svg>