<svg id="Capa_1" enable-background="new 0 0 512 512" height="512" viewBox="0 0 512 512" width="512" xmlns="http://www.w3.org/2000/svg"><g><g><g><g><g><g><g><g><path d="m233.063 83.509v-72.229c0-6.23-5.05-11.28-11.28-11.28h-168.373c-6.23 0-11.28 5.05-11.28 11.28v72.229z" fill="#b9cbea"/><path d="m279.206 0h-65.233c6.23 0 11.28 5.05 11.28 11.28v72.229h65.233v-72.229c0-6.23-5.05-11.28-11.28-11.28z" fill="#a2b9e2"/><g><path d="m237.405 46.644h-199.536c-10.711 0-19.394 8.683-19.394 19.394v426.169h238.323v-426.169c0-10.711-8.682-19.394-19.393-19.394z" fill="#d8e2f1"/></g><path d="m294.747 46.644h-65.153c10.711 0 19.394 8.683 19.394 19.394v426.169h65.154v-426.169c-.001-10.711-8.684-19.394-19.395-19.394z" fill="#b9cbea"/><g><path d="m61.905 372.718h75.621v119.488h-75.621z" fill="#f4fbff"/><g><path d="m146.222 380.444h-93.014c-4.267 0-7.726-3.459-7.726-7.726s3.458-7.726 7.726-7.726h93.014c4.267 0 7.726 3.459 7.726 7.726s-3.458 7.726-7.726 7.726z" fill="#b9cbea"/></g></g></g></g></g><g fill="#bed8fb"><path d="m59.043 127.633v-33.256c0-4.394 3.562-7.957 7.957-7.957h33.256c4.394 0 7.957 3.562 7.957 7.957v33.256c0 4.394-3.562 7.957-7.957 7.957h-33.257c-4.394-.001-7.956-3.563-7.956-7.957z"/><path d="m141.724 127.633v-33.256c0-4.394 3.562-7.957 7.957-7.957h33.256c4.394 0 7.957 3.562 7.957 7.957v33.256c0 4.394-3.562 7.957-7.957 7.957h-33.257c-4.394-.001-7.956-3.563-7.956-7.957z"/><path d="m224.404 127.633v-33.256c0-4.394 3.562-7.957 7.957-7.957h33.256c4.394 0 7.957 3.562 7.957 7.957v33.256c0 4.394-3.562 7.957-7.957 7.957h-33.256c-4.395-.001-7.957-3.563-7.957-7.957z"/><path d="m59.043 213.084v-33.256c0-4.394 3.562-7.957 7.957-7.957h33.256c4.394 0 7.957 3.562 7.957 7.957v33.256c0 4.394-3.562 7.957-7.957 7.957h-33.257c-4.394 0-7.956-3.563-7.956-7.957z"/><path d="m141.724 213.084v-33.256c0-4.394 3.562-7.957 7.957-7.957h33.256c4.394 0 7.957 3.562 7.957 7.957v33.256c0 4.394-3.562 7.957-7.957 7.957h-33.257c-4.394 0-7.956-3.563-7.956-7.957z"/><path d="m224.404 213.084v-33.256c0-4.394 3.562-7.957 7.957-7.957h33.256c4.394 0 7.957 3.562 7.957 7.957v33.256c0 4.394-3.562 7.957-7.957 7.957h-33.256c-4.395 0-7.957-3.563-7.957-7.957z"/><path d="m59.043 298.535v-33.255c0-4.394 3.562-7.957 7.957-7.957h33.256c4.394 0 7.957 3.562 7.957 7.957v33.256c0 4.394-3.562 7.957-7.957 7.957h-33.257c-4.394-.001-7.956-3.563-7.956-7.958z"/><path d="m141.724 298.535v-33.255c0-4.394 3.562-7.957 7.957-7.957h33.256c4.394 0 7.957 3.562 7.957 7.957v33.256c0 4.394-3.562 7.957-7.957 7.957h-33.257c-4.394-.001-7.956-3.563-7.956-7.958z"/><path d="m224.404 298.535v-33.255c0-4.394 3.562-7.957 7.957-7.957h33.256c4.394 0 7.957 3.562 7.957 7.957v33.256c0 4.394-3.562 7.957-7.957 7.957h-33.256c-4.395-.001-7.957-3.563-7.957-7.958z"/></g></g></g></g><g><g><path d="m327.625 133.996h-29.639c-23.529 0-42.602 19.074-42.602 42.602v41.093l5.783 6.207h68.972v-82.398z" fill="#efc984"/><path d="m387.161 158.758h-.624c-3.453 0-6.252-2.799-6.252-6.252 0-10.223-8.288-18.511-18.511-18.511h-34.15v89.901h67.625l10.422-6.207v-40.422c.001-10.221-8.287-18.509-18.51-18.509z" fill="#eabc6b"/><path d="m418.746 429.029c0-23.879-15.738-44.902-38.65-51.628l-34.702-10.188c-13.676-4.015-23.75-15.22-26.585-28.776l-35.911-.204-60.93 17.883c-21.837 6.409-36.836 26.444-36.836 49.201v86.712h233.614z" fill="#4a80aa"/><path d="m439.116 356.114-59.024-17.328-65.384-.372c.09 16.054 10.702 30.147 26.106 34.67l33.07 9.709c21.835 6.41 36.832 26.444 36.832 49.2v60.038h65.233v-86.715c-.001-22.758-14.999-42.792-36.833-49.202z" fill="#407093"/><path d="m339.832 397.197h-18.584l-16.783 94.69.076.143h52.108z" fill="#dd636e"/><g><g><g><g><g><g><g><g><path d="m363.985 350.46v-53.779h-66.915v53.779c0 18.478 33.458 20.12 33.458 20.12s33.457-1.642 33.457-20.12z" fill="#ffddce"/></g></g></g></g><g><g><path d="m233.479 499.932c-4.267 0-7.726-3.459-7.726-7.726v-38.393c0-4.267 3.458-7.726 7.726-7.726 4.267 0 7.726 3.459 7.726 7.726v38.393c-.001 4.267-3.459 7.726-7.726 7.726z" fill="#365e7d"/></g><g><path d="m427.577 499.932c-4.267 0-7.726-3.459-7.726-7.726v-38.393c0-4.267 3.458-7.726 7.726-7.726 4.267 0 7.726 3.459 7.726 7.726v38.393c0 4.267-3.459 7.726-7.726 7.726z" fill="#365e7d"/></g></g></g></g></g><path d="m330.139 258.608v-68.678c-10.536-.041-21.066-1.728-31.198-5.075l-.024-.008c-8.798-2.906-17.862 3.645-17.862 12.911v7.052c0 7.114-5.767 12.88-12.88 12.88h-12.791v21.063c0 5.382 4.363 9.745 9.745 9.745 1.698 0 3.08 1.33 3.187 3.025 1.566 24.828 17.66 45.7 39.876 54.233 13.209-11.5 21.662-28.324 21.947-47.148z" fill="#ffddce"/><path d="m392.881 217.69c-7.114 0-12.88-5.767-12.88-12.88v-7.049c0-9.266-9.066-15.818-17.864-12.91-11.194 3.7-22.875 5.366-34.512 5.03v67.889c-.284 18.795-8.889 35.564-22.283 46.811 7.703 3.408 16.219 5.314 25.186 5.314 33.098 0 60.157-25.792 62.212-58.372.107-1.695 1.489-3.025 3.187-3.025 5.382 0 9.745-4.363 9.745-9.745v-21.063z" fill="#ffcbbe"/></g><g fill="#365e7d"><path d="m284.026 334.669-9.529 4.278c-5.439 2.442-6.752 9.573-2.539 13.792l26.39 26.43c3.347 3.259 8.616 3.459 12.201.465l20.693-17.285-35.28-26.363c-3.444-2.574-8.013-3.078-11.936-1.317z"/><path d="m365.074 336.151-33.832 26.197 19.449 16.63c3.563 3.047 8.857 2.893 12.237-.354l26.403-25.712c4.315-4.202 3.026-11.434-2.476-13.886l-9.714-4.328c-3.983-1.775-8.619-1.217-12.067 1.453z"/></g></g><path d="m331.242 362.348-20.376 17.018 10.382 17.831h18.584l10.382-18.605z" fill="#e28086"/></g><path d="m495.14 512h-478.28c-9.299 0-16.838-7.539-16.838-16.838 0-9.299 7.539-16.838 16.838-16.838h478.28c9.299 0 16.838 7.539 16.838 16.838.001 9.299-7.538 16.838-16.838 16.838z" fill="#365e7d"/></g></g></svg>